Coordinates
version=1
nRows=16
nColumns=36
inDegrees=yes

Units are S.I. units (second, meters, Newtons, ...)
If the header above contains a line with 'inDegrees', this indicates whether rotational values are in degrees (yes) or radians (no).

endheader
time	pelvis_tilt	pelvis_list	pelvis_rotation	pelvis_tx	pelvis_ty	pelvis_tz	hip_flexion_r	hip_adduction_r	hip_rotation_r	knee_angle_r	knee_angle_r_beta	ankle_angle_r	subtalar_angle_r	mtp_angle_r	hip_flexion_l	hip_adduction_l	hip_rotation_l	knee_angle_l	knee_angle_l_beta	ankle_angle_l	subtalar_angle_l	mtp_angle_l	lumbar_extension	lumbar_bending	lumbar_rotation	arm_flex_r	arm_add_r	arm_rot_r	elbow_flex_r	pro_sup_r	arm_flex_l	arm_add_l	arm_rot_l	elbow_flex_l	pro_sup_l
      0.00000000	     -0.57051067	     -0.60483684	     -3.84647487	     -0.96076190	      1.22407108	     -0.08302050	      7.80666220	     -0.76817063	     -0.72817315	     15.01802959	      0.26211406	      1.97702897	    -15.93020722	     -5.61097908	      2.03468366	      0.38542657	     -5.17931357	      8.36783171	      0.14604621	      3.82513902	     -9.21901729	     -5.61097908	    -15.17585534	      1.78751974	     -0.38736550	      6.34605207	     -6.76326591	     19.69435882	     23.04304760	     71.35026346	      6.01153528	     -6.96692055	     25.83494716	     26.90501429	     66.57313094
      0.00416670	     -2.37769685	      0.02758321	     -4.06628652	     -0.96097442	      1.22315192	     -0.08309433	     11.77413957	     -0.91577413	      0.64944614	     18.79726430	      0.32807415	      5.62114270	    -15.55616518	     -5.67962290	      5.26534000	      1.38477256	     -4.37733312	     10.25207282	      0.17893243	      4.78753130	     -9.47937274	     -5.67962290	    -13.32287647	      1.36327390	     -0.52931464	      6.35543954	     -5.86195193	     18.01102268	     22.15949619	     71.19876042	      5.87686997	     -6.44158840	     24.95622371	     26.71155478	     66.80278758
      0.00833330	     -3.23528282	      0.95570326	     -4.19711815	     -0.96002571	      1.22271587	     -0.08262898	     12.53415607	     -1.86616125	     -0.00499287	     18.24084331	      0.31836277	      5.98719496	    -14.79571043	     -5.85639865	      6.21342129	      2.23299662	     -4.19497883	     10.31787319	      0.18008086	      4.54980389	    -10.65534386	     -5.85639865	    -12.04880120	      0.19995583	     -0.51711041	      5.85965752	     -5.06992183	     14.80189132	     22.21139632	     70.55728203	      5.86254310	     -6.57666865	     24.12972002	     26.31490229	     67.64964279
      0.01250000	     -2.70258587	      1.19282012	     -4.35241707	     -0.96192387	      1.23036622	     -0.08335276	     11.65933615	     -2.25764925	     -0.20516086	     17.48104531	      0.30510180	      5.45083805	    -14.37625641	     -6.15840099	      5.26587550	      2.61866201	     -4.10162977	      9.52528384	      0.16624757	      3.44488437	    -11.68253663	     -6.15840099	    -13.01066949	     -0.13460789	      0.03822495	      5.36947808	     -4.40841549	      9.26090057	     23.30736059	     72.20435954	      6.40390287	     -6.54687774	     23.48522088	     26.39779879	     72.11501583
      0.01666670	     -2.51543758	      1.26310301	     -4.29861024	     -0.96275111	      1.22956192	     -0.08363400	     11.13193544	     -2.35539572	     -0.31049644	     16.76748174	      0.29264776	      4.82985328	    -14.15087884	     -6.73119488	      4.95216488	      2.81860162	     -4.05289996	      9.12402027	      0.15924419	      2.72901173	    -12.67251034	     -6.73119488	    -13.59211339	     -0.07822641	      0.00277056	      5.44384503	     -4.19637768	      7.27479364	     23.74747317	     76.43509552	      6.52908668	     -6.59274223	     22.44852897	     26.76655394	     78.07559927
      0.02083330	     -2.35806088	      1.30538637	     -4.29709226	     -0.96296889	      1.23123119	     -0.08332058	     10.80272105	     -2.39996664	     -0.36504727	     16.30059298	      0.28449902	      4.22469781	    -14.18481155	     -6.80223117	      4.70748552	      2.88914712	     -4.16681061	      8.76030001	      0.15289608	      2.03459861	    -13.12914076	     -6.80223117	    -14.02795512	     -0.02141849	      0.15373038	      5.59054494	     -4.18907762	      7.17452803	     23.82731715	     75.78710360	      6.69309915	     -6.61394419	     22.64385438	     27.08185299	     77.55249278
      0.02500000	     -2.26865758	      1.24973087	     -4.20322960	     -0.96282145	      1.23078777	     -0.08322974	     10.51571951	     -2.36967524	     -0.54525243	     15.83225278	      0.27632494	      3.63878752	    -14.33291358	     -6.84268418	      4.62383148	      2.86412104	     -4.03318031	      8.60495615	      0.15018482	      1.52002464	    -13.58378965	     -6.84268418	    -14.38471670	      0.17829525	      0.22956581	      5.67796011	     -4.24382866	      7.26614631	     24.05372403	     75.42294950	      6.76208435	     -6.64972566	     23.10552507	     27.46262857	     77.41099714
      0.02916670	     -2.03746508	      1.21999283	     -4.11214228	     -0.96324085	      1.23042669	     -0.08313534	     10.21015940	     -2.32401402	     -0.46276205	     15.66353020	      0.27338017	      3.26204106	    -14.69714662	     -6.94600093	      4.44041532	      2.86199585	     -4.00651722	      8.58885348	      0.14990377	      1.10173518	    -14.32693717	     -6.94600093	    -14.91654664	      0.30165072	      0.30432439	      5.82363950	     -4.37096308	      7.62680973	     24.19804323	     74.49562784	      7.03659626	     -6.72565865	     23.93126377	     27.83018361	     76.79511700
      0.03333330	     -1.99228215	      1.17532537	     -4.00142431	     -0.96281547	      1.22990479	     -0.08371281	     10.12039069	     -2.24296309	     -0.34460850	     15.56328988	      0.27163065	      2.85591536	    -15.18208445	     -6.97787367	      4.44326994	      2.86044219	     -3.71815743	      8.57595257	      0.14967861	      0.67759289	    -15.15441025	     -6.97787367	    -15.17372970	      0.44127900	      0.28604519	      5.87501858	     -4.53680377	      8.10605215	     24.40109504	     74.06056635	      7.16209679	     -6.83527169	     24.71488335	     28.15489300	     76.69353460
      0.03750000	     -1.84801350	      1.09616152	     -4.03005015	     -0.96273379	      1.22966742	     -0.08221460	      9.98030806	     -2.11148701	     -0.18885868	     15.61884456	      0.27260026	      2.70080605	    -15.53376707	     -7.05839757	      4.25683859	      2.77111365	     -3.71549725	      8.52877939	      0.14885528	      0.59813501	    -15.39442274	     -7.05839757	    -15.46411525	      0.49110139	      0.45788020	      5.82846984	     -4.84478404	      9.32723311	     24.80199701	     74.06471909	      7.39981735	     -7.15714631	     26.55226321	     28.38433604	     77.91495438
      0.04166670	     -1.99577286	      1.12156502	     -4.09856693	     -0.96188075	      1.22637251	     -0.08223619	     10.26889681	     -2.07548187	     -0.02596110	     15.89702006	      0.27745534	      2.92036616	    -15.70071534	     -7.14802699	      4.39367520	      2.75856673	     -3.84477254	      8.54387186	      0.14911869	      0.79453380	    -15.31326588	     -7.14802699	    -15.19955735	      0.43567303	      0.51313019	      5.80418097	     -4.78558625	      9.17830977	     24.59961343	     72.82232448	      7.29305307	     -7.12869407	     26.47523545	     28.23815765	     76.65196979
      0.04583330	     -2.08437808	      1.06323994	     -4.04553592	     -0.96175368	      1.22330601	     -0.08172808	     10.35979506	     -1.95971634	      0.06781918	     15.97978470	      0.27889986	      2.68313699	    -16.63230626	     -7.21009596	      4.56901247	      2.68645419	     -3.40670237	      8.74411482	      0.15261359	      0.59728192	    -16.16357954	     -7.21009596	    -15.09800939	      0.52772199	      0.47300408	      5.65775816	     -5.00593132	      9.86851917	     25.06805744	     72.99877243	      7.23552122	     -7.33381535	     27.23729026	     28.50497398	     77.46589182
      0.05000000	     -2.28309336	      1.06543216	     -4.09576548	     -0.96131907	      1.22564510	     -0.08139548	     10.61906937	     -1.88864441	      0.15462156	     16.13594891	      0.28162544	      2.70200477	    -16.99713822	     -7.33086495	      4.79985250	      2.62811246	     -3.47169281	      8.83775199	      0.15424787	      0.51905704	    -16.32964429	     -7.33086495	    -14.85062641	      0.48523108	      0.53274054	      5.52497190	     -4.96159105	      9.13273364	     25.12011557	     76.26630229	      7.05650174	     -7.30754043	     25.77111910	     28.49521955	     84.22638514
      0.05416670	     -2.59593526	      1.11581168	     -4.07282953	     -0.96074539	      1.22692588	     -0.08166794	     10.97954709	     -1.86415447	      0.26899588	     16.22588991	      0.28319520	      2.91712497	    -17.08177593	     -7.36601044	      5.15837324	      2.64744266	     -3.32737346	      8.94422312	      0.15610614	      0.55282870	    -16.41222719	     -7.36601044	    -14.37578954	      0.42865973	      0.47096783	      5.44706746	     -4.91025027	      9.24759304	     24.94010681	     74.35661843	      6.92452451	     -7.33475235	     25.90627848	     28.32189647	     81.73680762
      0.05833330	     -2.84029507	      1.17854773	     -4.11146969	     -0.96095001	      1.22613103	     -0.08163403	     11.27583998	     -1.83272466	      0.49320242	     16.23601215	      0.28337187	      3.04789518	    -16.99725624	     -7.37481099	      5.38352962	      2.68411742	     -3.19063722	      8.86801658	      0.15477609	      0.56420070	    -16.15528661	     -7.37481099	    -14.00092727	      0.34109554	      0.43154017	      5.26771597	     -5.00432648	      9.41527444	     25.08680966	     73.97183567	      6.78071116	     -7.51666390	     26.12733619	     28.42325073	     81.25701226
      0.06250000	     -2.93901043	      1.14893476	     -4.11231538	     -0.96218116	      1.22697129	     -0.08212456	     11.41265647	     -1.74001080	      0.79107944	     16.16324253	      0.28210180	      2.79533078	    -17.29662317	     -7.38119966	      5.51024027	      2.66517836	     -3.07265344	      8.84752811	      0.15441850	      0.46429973	    -16.44802168	     -7.38119966	    -13.98491479	      0.40506394	      0.47045363	      5.29089073	     -5.15664369	     10.16201197	     25.18867464	     74.17879810	      6.99317155	     -7.59703452	     26.99558958	     28.21943444	     81.94977442
